<svg height="24" viewBox="0 0 24 24" width="24" xmlns="http://www.w3.org/2000/svg"><path d="m3 9.00247329v9.99505341c0 .5467123.44475929 1.0024733.99339768 1.0024733h16.01320462c.5484514 0 .9933977-.446616.9933977-.9975446v-7.0049108c0-.5512332-.4461268-.9975446-.9964521-.9975446h-5.2921776l-2.6622315-3h-8.04614769c-.55424291 0-1.00299111.44882258-1.00299111 1.00247329zm17.0035479-.00247329c1.6553963 0 2.9964521 1.3422431 2.9964521 2.9975446v7.0049108c0 1.6536304-1.3385013 2.9975446-2.9933977 2.9975446h-16.01320462c-1.65709878 0-2.99339768-1.3549542-2.99339768-3.0024733v-9.99505341c0-1.65846273 1.34442121-3.00247329 3.00299111-3.00247329h8.94527319l2.6622315 3zm-13.36718426-3.56049045v.67291721c0 .3813441 1.10026715 1.01143371 2.36363636.88757324 1.1656025-.11427544 3.6799892-.11234675 4.1950467.57861449 1.8049533 2.42138551 8.1685897 3.15767811 8.1685897 2.42138551v-2.12699497c0-.44787702-.3650129-.81050503-.815279-.81050503h-4.3299635l-2.1781894-2.4375h-6.58321177c-.45347147 0-.82062909.36466835-.82062909.81450955zm13.91199376-.00200955c1.3544151 0 2.4516426 1.09057252 2.4516426 2.43550503v4.12699497c0 .456905-1-2-8-2-2.0196043-.75771787-.8975103-1.54666757-3-2.12699497-2.25841233-.62336504-4.94332315.07461693-6.20617268.05214384-.81411213-.01448757-.79382732-.64005047-.79382732-.92514887v-1.56049045c0-1.34750097 1.09998099-2.43950955 2.45699273-2.43950955h7.31885987l2.1781894 2.4375z" fill="#4a4a4a"/></svg>